<svg width="22" height="22" viewBox="0 0 22 22" fill="none" xmlns="http://www.w3.org/2000/svg">
<path fill-rule="evenodd" clip-rule="evenodd" d="M6.875 0H15.125C18.9214 0 22 3.07862 22 6.875V15.125C22 18.9214 18.9214 22 15.125 22H6.875C3.07862 22 0 18.9214 0 15.125V6.875C0 3.07862 3.07862 0 6.875 0ZM15.125 19.9375C17.7787 19.9375 19.9375 17.7787 19.9375 15.125V6.875C19.9375 4.22125 17.7787 2.0625 15.125 2.0625H6.875C4.22125 2.0625 2.0625 4.22125 2.0625 6.875V15.125C2.0625 17.7787 4.22125 19.9375 6.875 19.9375H15.125Z" fill="#101214"/>
<path fill-rule="evenodd" clip-rule="evenodd" d="M5.5 11C5.5 7.96263 7.96263 5.5 11 5.5C14.0374 5.5 16.5 7.96263 16.5 11C16.5 14.0374 14.0374 16.5 11 16.5C7.96263 16.5 5.5 14.0374 5.5 11ZM7.5625 11C7.5625 12.8948 9.10525 14.4375 11 14.4375C12.8948 14.4375 14.4375 12.8948 14.4375 11C14.4375 9.10388 12.8948 7.5625 11 7.5625C9.10525 7.5625 7.5625 9.10388 7.5625 11Z" fill="#101214"/>
<circle cx="16.9124" cy="5.08749" r="0.732875" fill="#101214"/>
</svg>
